<svg width="32" height="32" viewBox="0 0 32 32" fill="none" xmlns="http://www.w3.org/2000/svg">
<path d="M14 16.59L11.41 14L10 15.41L14 19.41L22 11.41L20.59 10L14 16.59Z" fill="#1A57DB"/>
<path d="M16 30L9.82421 26.7071C8.06347 25.7704 6.59104 24.372 5.56496 22.6618C4.53887 20.9517 3.99787 18.9944 4.00001 17V4C4.00056 3.46974 4.21145 2.96135 4.58641 2.5864C4.96136 2.21145 5.46974 2.00056 6.00001 2H26C26.5303 2.00056 27.0387 2.21145 27.4136 2.5864C27.7886 2.96135 27.9995 3.46974 28 4V17C28.0021 18.9944 27.4611 20.9517 26.4351 22.6618C25.409 24.372 23.9365 25.7704 22.1758 26.7071L16 30ZM6.00001 4V17C5.99828 18.6318 6.44096 20.2333 7.28055 21.6325C8.12014 23.0318 9.32493 24.176 10.7656 24.9423L16 27.7333L21.2344 24.9423C22.6751 24.176 23.8799 23.0318 24.7195 21.6325C25.559 20.2333 26.0017 18.6318 26 17V4H6.00001Z" fill="#1A57DB"/>
</svg>
