<svg width="32" height="32" viewBox="0 0 32 32" fill="none" xmlns="http://www.w3.org/2000/svg">
<g clip-path="url(#clip0_2562_10499)">
<rect width="32" height="32" rx="16" fill="#F5F8FC"/>
<path d="M0 0H32V32H0V0Z" fill="#FCFCFC"/>
<path d="M15.2352 1.32569C15.2759 1.32312 15.3166 1.32089 15.3574 1.319C19.052 1.12404 22.6703 2.42023 25.4008 4.91685C28.3249 7.57447 29.8584 11.1506 30.0432 15.0687C30.2214 19.1133 28.7997 23.0655 26.0858 26.0698C23.6129 28.7859 20.3786 30.4057 16.6977 30.5801L16.6799 30.5815C13.2683 30.8215 9.53153 29.3343 6.98209 27.1026C4.00434 24.5176 2.17835 20.8534 1.90745 16.9196C1.37154 8.7726 6.97553 1.8571 15.2352 1.32569Z" fill="#1254B5"/>
<path d="M15.3404 2.45067C15.3467 2.4501 15.353 2.44952 15.3592 2.44895C18.6357 2.28417 21.8498 3.33325 24.3284 5.46425C27.0278 7.79082 28.6807 11.1033 28.9166 14.6591C29.1986 18.4562 27.9625 22.2101 25.4795 25.0967C23.1684 27.7722 20.2165 29.2121 16.7117 29.4655C13.3235 29.5593 10.3273 28.5088 7.75695 26.2748C4.99936 23.8805 3.3048 20.4897 3.04539 16.847C2.51728 9.29013 7.71795 2.98404 15.3404 2.45067Z" fill="#F5F8FC"/>
<path d="M15.9877 5.65234C16.0693 5.65741 16.4891 5.98366 16.5846 6.05256C17.2299 6.51925 17.9072 6.93991 18.6116 7.31147C20.5866 8.34306 22.7398 8.98959 24.9563 9.21656C24.9256 9.65044 24.9416 10.3483 24.9391 10.8075L24.9344 14.4797C24.935 15.186 24.96 16.0702 24.9229 16.7555C24.833 18.1651 24.4709 19.5439 23.8563 20.8157C22.3472 24.0131 19.3087 26.5643 16.0066 27.7482C14.4396 27.2058 12.4882 25.9498 11.2411 24.8488C9.03158 22.8981 7.42196 20.2019 7.08433 17.2435C7.00511 16.5493 7.02974 15.631 7.02917 14.9135L7.02614 11.2611C7.02558 10.6345 7.04602 9.83691 7.01099 9.22209C10.6561 8.86734 13.069 7.80025 15.9877 5.65234Z" fill="#1254B5"/>
<path d="M16.0112 6.68408C16.0947 6.70561 17.229 7.50389 17.4126 7.61024C19.1353 8.61039 21.003 9.33652 22.9489 9.76255C23.2698 9.83049 23.8056 9.94064 24.1224 9.94671L24.1085 14.3201C24.1086 15.2521 24.1475 16.6603 24.0173 17.541C23.8783 18.4239 23.6259 19.2852 23.2663 20.1034C21.9256 23.2187 19.1219 25.6075 16.0083 26.8484C14.3254 26.1781 12.5199 24.9595 11.2355 23.692C9.33456 21.8161 7.94363 19.1405 7.88069 16.4377C7.86319 15.6869 7.87078 14.9261 7.87003 14.1745L7.84888 9.97774C10.977 9.61633 13.465 8.4628 16.0112 6.68408Z" fill="#FCFCFC"/>
<path d="M12.0302 11.7566C12.5117 11.7209 13.0576 11.7418 13.5467 11.7357C13.9417 11.7373 14.3309 11.728 14.7257 11.7474C15.1678 11.769 15.3921 12.039 15.3395 12.4795C15.302 12.7937 15.1132 12.9389 14.8804 13.1204L14.8793 14.9758C14.8793 15.1973 14.8625 16.0801 14.9225 16.2351C15.4974 17.7201 16.4658 19.3261 17.0712 20.7739C17.4469 20.5606 17.9076 20.4563 18.3383 20.2709C18.4543 20.3277 18.5652 20.3984 18.6891 20.3824C18.9249 20.2334 18.993 20.2624 19.2355 20.3975C19.5753 20.5869 19.7748 20.412 20.0924 20.2863C20.2678 20.2169 20.3774 20.3244 20.5186 20.4032C20.6451 20.4705 20.9317 20.3309 21.0696 20.275C21.324 20.4627 22.1958 20.7192 22.5585 20.8441C22.4074 21.113 22.1477 21.5951 21.9492 21.8064L20.203 21.8084L17.448 21.8076C17.3909 22.2807 17.1004 22.6962 16.5973 22.745C15.9542 22.8075 15.282 22.7816 14.6335 22.7816L10.796 22.7795C10.7493 22.7083 10.6957 22.642 10.6418 22.5761C10.3008 22.1591 9.99578 21.7191 9.69531 21.2721C10.3983 19.6305 11.3722 17.9303 12.0372 16.2614C12.0951 16.1161 12.0726 15.2681 12.0722 15.0617L12.0685 13.1072C11.5434 12.7464 11.3332 12.0347 12.0302 11.7566Z" fill="#1254B5"/>
<path d="M12.1982 12.1655C12.7193 12.1541 13.2405 12.1493 13.7618 12.1512C14.0846 12.1505 14.6764 12.0907 14.9251 12.3056C15.0431 12.5624 14.6458 12.748 14.4514 12.8391C14.4365 13.9008 14.4317 15.2278 14.4894 16.2894C14.5014 16.5109 15.0283 17.5194 15.1704 17.8109C15.5031 18.4887 15.8323 19.1684 16.1579 19.8497C16.3217 20.1874 17.1542 21.646 16.9809 21.9304C16.7867 21.8336 15.9219 19.798 15.7229 19.4595C15.7082 19.4345 15.6487 19.2813 15.6354 19.2471C15.4389 19.2739 15.3729 19.2774 15.1746 19.272C14.6207 19.213 14.1093 18.8633 13.4885 18.8856C12.5561 18.9191 12.3081 19.3444 11.3221 19.257C11.2143 19.5418 10.3618 21.4101 10.2142 21.4982L10.1741 21.4777C10.1863 20.9967 10.5746 20.4009 10.7825 19.9772C11.1116 19.3065 11.4229 18.6276 11.7467 17.9543C11.9847 17.4596 12.3121 16.9202 12.4475 16.3893C12.5822 15.8616 12.5014 13.5109 12.4983 12.8216C12.2951 12.7395 11.9648 12.58 12.0191 12.3074C12.1009 12.1907 12.0651 12.227 12.1982 12.1655Z" fill="#FCFCFC"/>
<path d="M12.5973 17.6708C12.8208 17.59 13.0675 17.7055 13.1485 17.929C13.2295 18.1523 13.1142 18.3991 12.8909 18.4804C12.6672 18.5617 12.42 18.4462 12.3389 18.2225C12.2578 17.9988 12.3735 17.7516 12.5973 17.6708Z" fill="#1254B5"/>
<path d="M12.9679 19.5146C13.2077 19.4657 13.4428 19.6166 13.4981 19.855C13.5535 20.0934 13.4088 20.3325 13.172 20.3942C13.0131 20.4357 12.8441 20.3875 12.7309 20.2685C12.6177 20.1495 12.578 19.9784 12.6273 19.8217C12.6765 19.665 12.8069 19.5474 12.9679 19.5146Z" fill="#FCFCFC"/>
<path d="M12.3574 21.2359C12.5927 21.17 12.8372 21.3055 12.906 21.54C12.9748 21.7744 12.8423 22.0206 12.6088 22.0923C12.4551 22.1395 12.2879 22.1003 12.1711 21.9899C12.0543 21.8794 12.006 21.7147 12.0445 21.5586C12.0831 21.4026 12.2026 21.2793 12.3574 21.2359Z" fill="#FCFCFC"/>
<path d="M17.0962 8.70264C17.3686 8.73926 17.4043 8.95861 17.4851 9.1827C18.1701 9.59989 21.653 11.5265 21.9463 11.9294C22.0722 12.1024 22.1011 12.3338 22.0637 12.5406C22.0225 12.783 21.8836 12.9978 21.6794 13.1348C21.4514 13.2879 21.2303 13.3042 20.9695 13.2563C20.7169 13.1652 19.7715 12.5899 19.4913 12.4261L16.5524 10.7073C16.3874 10.7672 16.2131 10.8319 16.0604 10.714C16.0396 10.6754 16.0025 10.6234 16.0091 10.5854C16.0628 10.2779 16.9339 8.85264 17.0962 8.70264Z" fill="#1254B5"/>
<path d="M17.1494 9.20557C17.1572 9.20935 17.39 9.46507 17.5121 9.53541C18.3977 10.0451 19.2887 10.5586 20.1669 11.08C20.5651 11.3165 21.1352 11.6106 21.4803 11.8978L21.0209 11.7105C20.5913 11.545 19.9519 11.3538 19.5043 11.2093L16.5149 10.2479C16.7151 9.96394 16.9655 9.516 17.1494 9.20557Z" fill="#FCFCFC"/>
<path d="M18.7289 12.8589C18.9991 12.8813 19.0441 13.1106 19.1389 13.331C19.7341 13.6883 22.7834 15.4109 23.0756 15.7624C23.2135 15.9284 23.2661 16.1596 23.2434 16.3713C23.2177 16.6118 23.1026 16.8187 22.9111 16.9661C22.7076 17.1228 22.4875 17.1691 22.2361 17.1394C21.9522 17.0396 21.4861 16.747 21.2136 16.5851L19.1799 15.3757C18.8818 15.1996 18.5627 15.0044 18.2577 14.8394C18.1113 14.7603 17.9461 14.9035 17.7652 14.8341C17.7298 14.7961 17.6823 14.7585 17.688 14.7048C17.7221 14.3811 18.5471 13.0597 18.7289 12.8589Z" fill="#1254B5"/>
<path d="M18.7869 13.3345C19.0402 13.6653 19.845 14.072 20.2244 14.2943C21.0668 14.7847 21.9044 15.2833 22.7371 15.79C22.5484 15.733 22.3962 15.6806 22.2119 15.6107C20.8876 15.2236 19.4932 14.7605 18.1741 14.3434C18.3434 14.1153 18.631 13.5986 18.7869 13.3345Z" fill="#FCFCFC"/>
<path d="M16.5394 11.5259C16.6633 11.6482 16.9935 12.3265 17.0401 12.5101C17.1588 12.978 17.0302 13.2602 16.5495 13.3921C15.4509 13.2525 16.2186 12.0184 16.5394 11.5259Z" fill="#1254B5"/>
<path d="M17.7802 15.6421C17.9197 15.717 18.216 16.3328 18.2677 16.5029C18.4097 16.9695 18.3509 17.3235 17.8494 17.4779C16.7092 17.3968 17.4822 16.1482 17.7802 15.6421Z" fill="#1254B5"/>
<path d="M19.5333 17.8296C19.6011 17.9117 19.6723 18.0704 19.7308 18.1672C20.0453 18.6886 20.3706 19.4868 19.5247 19.6785C18.451 19.4626 19.1919 18.3617 19.5333 17.8296Z" fill="#1254B5"/>
<path d="M17.844 18.7964L17.8708 18.8004C18.2096 18.8488 18.4298 19.548 18.6276 19.8C18.6642 19.8466 18.6953 19.9198 18.7058 19.9786L18.6636 19.9783C18.4135 19.725 17.7823 19.2905 17.7205 19.0008C17.7531 18.8658 17.7418 18.9064 17.844 18.7964Z" fill="#1254B5"/>
<path d="M20.792 19.6755C20.922 19.4463 21.2041 18.8915 21.4357 18.8105C21.5957 18.8215 21.6802 18.9043 21.6593 19.0629C21.5075 19.2796 21.1607 19.5459 20.9446 19.7255L20.792 19.6755Z" fill="#1254B5"/>
<path d="M16.9787 19.6772C17.1707 19.6856 17.8446 20.0872 17.9757 20.2342L17.9372 20.2689C17.654 20.2152 16.9796 20.1581 16.8518 19.8936C16.8801 19.7569 16.8759 19.7934 16.9787 19.6772Z" fill="#1254B5"/>
<path d="M22.2192 19.6827C22.2817 19.6816 22.298 19.6926 22.3577 19.7156C22.4565 19.8226 22.4831 19.8392 22.418 19.9733C22.2213 20.1353 21.7957 20.1887 21.5313 20.2412C21.4558 20.2602 21.4526 20.262 21.3772 20.249C21.4169 20.1044 22.058 19.7653 22.2192 19.6827Z" fill="#1254B5"/>
<path d="M20.7919 19.6753L20.9445 19.7253C20.799 19.8664 20.6422 20.0081 20.4932 20.1465C20.5814 20.001 20.6911 19.8075 20.7919 19.6753Z" fill="#2773AB"/>
</g>
<defs>
<clipPath id="clip0_2562_10499">
<rect width="32" height="32" rx="16" fill="white"/>
</clipPath>
</defs>
</svg>
