<svg width="48" height="48" viewBox="0 0 48 48" fill="none" xmlns="http://www.w3.org/2000/svg">
<g clip-path="url(#clip0_2864_5815)">
<path d="M0 0H22.1722H25.769H48V22.3232V25.6669V48H0V25.6268V22.3227V0Z" fill="#0867FF"/>
<path d="M18.2133 23.9917C18.2846 19.4851 17.7803 14.2872 21.8312 11.1063C24.5731 8.95319 28.4052 8.73963 31.7488 8.96908C32.9409 9.05092 34.0219 9.30827 35.1814 9.45377C35.0929 9.86421 35.1084 15.9055 35.1824 16.1264C33.4434 15.9517 30.6079 15.902 29.0528 16.6423C26.4754 17.8692 26.9105 21.6165 26.9074 24.0007L34.7641 23.999C34.5621 24.8579 34.4005 25.8983 34.2409 26.7759L33.3995 31.3525C31.9369 31.3331 30.4741 31.3283 29.0114 31.3379C28.467 31.3383 27.4185 31.3707 26.9054 31.3239L26.9078 42.2269C26.9078 44.0355 26.9512 46.0361 26.902 47.8317C33.4416 46.9528 39.0976 43.7854 43.1157 38.5139C45.291 35.6603 46.794 32.3523 47.5125 28.8366C47.6184 28.3316 47.707 27.8231 47.7778 27.3121C47.8209 26.9827 47.9119 25.891 48 25.6669V48H0V25.6268C0.062408 25.8153 0.0825431 25.9587 0.10056 26.1555C0.172593 26.942 0.267304 27.6963 0.417135 28.4718C0.963698 31.3677 2.04161 34.1374 3.5964 36.641C6.85252 41.8451 12.1921 45.9018 18.2042 47.2847C18.2629 45.5916 18.2132 43.6071 18.2131 41.8945L18.2136 31.3475C16.5571 31.3125 14.8871 31.3647 13.2289 31.325C13.2866 28.9759 13.2329 26.3711 13.2282 24.0007L18.2133 23.9917Z" fill="#FBFBFB"/>
<path d="M25.769 0H48.0001V22.3232C47.9199 22.0935 47.7873 20.7259 47.731 20.3606C47.5632 19.3068 47.3288 18.2647 47.0288 17.2406C44.7465 9.46355 38.6946 3.36283 30.9361 1.01821C29.826 0.675534 28.7117 0.437546 27.5644 0.261308C27.228 0.209618 25.9662 0.126221 25.769 0Z" fill="#FBFBFB"/>
<path d="M0 0H22.1722C21.9846 0.124178 20.5288 0.233595 20.1945 0.291022C19.0607 0.485845 17.9748 0.736791 16.8761 1.07753C9.06516 3.50692 3.02818 9.74541 0.856509 17.6319C0.597623 18.5824 0.395699 19.5475 0.251817 20.5222C0.190084 20.9524 0.109801 21.98 0 22.3227V0Z" fill="#FBFBFB"/>
<path d="M35.1815 9.4541C35.399 9.78096 35.1795 14.4901 35.2555 15.2384C35.2674 15.3562 35.2193 15.9893 35.1824 16.1268C35.1084 15.9058 35.093 9.86454 35.1815 9.4541Z" fill="#0068F8"/>
</g>
<defs>
<clipPath id="clip0_2864_5815">
<rect width="48" height="48" fill="white"/>
</clipPath>
</defs>
</svg>
